<svg width="125" height="125" xmlns="http://www.w3.org/2000/svg">

 <g>
  <title>Layer 1</title>
  <g stroke="null">
   <g stroke="null">
    <path stroke="null" d="m62.43998,1c33.933,0 61.439,27.507 61.439,61.439s-27.506,61.439 -61.439,61.439c-33.933,0.001 -61.44,-27.506 -61.44,-61.439s27.507,-61.439 61.44,-61.439l0,0zm12.011,39.151c2.75,-2.793 7.221,-2.805 9.986,-0.027c2.764,2.776 2.775,7.292 0.027,10.083l-12.064,12.238l12.076,12.249c2.729,2.77 2.689,7.257 -0.08,10.022c-2.773,2.765 -7.23,2.758 -9.955,-0.013l-11.995,-12.163l-12.018,12.188c-2.75,2.793 -7.22,2.805 -9.986,0.027c-2.763,-2.776 -2.776,-7.293 -0.027,-10.084l12.065,-12.237l-12.077,-12.249c-2.728,-2.769 -2.689,-7.256 0.082,-10.022c2.772,-2.765 7.229,-2.758 9.953,0.013l11.997,12.165l12.016,-12.19l0,0z" fill="#BBBBBB" clip-rule="evenodd" fill-rule="evenodd"/>
   </g>
  </g>
 </g>
</svg>